<mxfile host="app.diagrams.net" modified="2023-04-05T01:55:24.007Z" agent="Mozilla/5.0 (Windows NT 10.0; Win64; x64) AppleWebKit/537.36 (KHTML, like Gecko) Chrome/111.0.0.0 Safari/537.36" etag="ilGoAdAno_DJbrtoaZzh" version="21.1.4" type="device">
  <diagram name="Page-1" id="_A-Z0996iPiGHyi5JEkH">
    <mxGraphModel dx="1434" dy="707" grid="1" gridSize="10" guides="1" tooltips="1" connect="1" arrows="1" fold="1" page="1" pageScale="1" pageWidth="827" pageHeight="1169" math="0" shadow="0">
      <root>
        <mxCell id="0" />
        <mxCell id="1" parent="0" />
        <mxCell id="WsD50GdEpe7IqlJUJexw-4" value="ESP-NOW" style="edgeStyle=orthogonalEdgeStyle;rounded=0;orthogonalLoop=1;jettySize=auto;html=1;entryX=-0.007;entryY=0.524;entryDx=0;entryDy=0;entryPerimeter=0;" parent="1" source="WsD50GdEpe7IqlJUJexw-1" target="WsD50GdEpe7IqlJUJexw-6" edge="1">
          <mxGeometry relative="1" as="geometry">
            <mxPoint x="610" y="440" as="targetPoint" />
            <Array as="points" />
          </mxGeometry>
        </mxCell>
        <mxCell id="WsD50GdEpe7IqlJUJexw-17" value="" style="edgeStyle=orthogonalEdgeStyle;rounded=0;orthogonalLoop=1;jettySize=auto;html=1;entryX=1;entryY=0.5;entryDx=0;entryDy=0;" parent="1" source="WsD50GdEpe7IqlJUJexw-1" target="WsD50GdEpe7IqlJUJexw-18" edge="1">
          <mxGeometry x="-0.7828" relative="1" as="geometry">
            <mxPoint x="340" y="620" as="targetPoint" />
            <Array as="points">
              <mxPoint x="410" y="667" />
              <mxPoint x="300" y="667" />
            </Array>
            <mxPoint as="offset" />
          </mxGeometry>
        </mxCell>
        <mxCell id="WsD50GdEpe7IqlJUJexw-22" style="edgeStyle=orthogonalEdgeStyle;rounded=0;orthogonalLoop=1;jettySize=auto;html=1;entryX=1;entryY=0.5;entryDx=0;entryDy=0;dashed=1;" parent="1" target="WsD50GdEpe7IqlJUJexw-7" edge="1">
          <mxGeometry relative="1" as="geometry">
            <mxPoint x="410" y="570" as="sourcePoint" />
            <Array as="points">
              <mxPoint x="410" y="620" />
            </Array>
          </mxGeometry>
        </mxCell>
        <mxCell id="WsD50GdEpe7IqlJUJexw-23" style="edgeStyle=orthogonalEdgeStyle;rounded=0;orthogonalLoop=1;jettySize=auto;html=1;entryX=1;entryY=0.5;entryDx=0;entryDy=0;" parent="1" target="WsD50GdEpe7IqlJUJexw-24" edge="1">
          <mxGeometry relative="1" as="geometry">
            <mxPoint x="350" y="530" as="targetPoint" />
            <mxPoint x="410" y="525" as="sourcePoint" />
            <Array as="points">
              <mxPoint x="410" y="575" />
            </Array>
          </mxGeometry>
        </mxCell>
        <mxCell id="WsD50GdEpe7IqlJUJexw-29" value="" style="edgeStyle=orthogonalEdgeStyle;rounded=0;orthogonalLoop=1;jettySize=auto;html=1;entryX=1;entryY=0.5;entryDx=0;entryDy=0;" parent="1" source="WsD50GdEpe7IqlJUJexw-1" target="WsD50GdEpe7IqlJUJexw-28" edge="1">
          <mxGeometry relative="1" as="geometry">
            <Array as="points">
              <mxPoint x="410" y="360" />
            </Array>
          </mxGeometry>
        </mxCell>
        <mxCell id="WsD50GdEpe7IqlJUJexw-30" value="PWM" style="edgeLabel;html=1;align=center;verticalAlign=middle;resizable=0;points=[];" parent="WsD50GdEpe7IqlJUJexw-29" vertex="1" connectable="0">
          <mxGeometry x="-0.3603" relative="1" as="geometry">
            <mxPoint x="-26" as="offset" />
          </mxGeometry>
        </mxCell>
        <mxCell id="WsD50GdEpe7IqlJUJexw-1" value="ESP32-WROOM" style="rounded=1;whiteSpace=wrap;html=1;strokeWidth=1;" parent="1" vertex="1">
          <mxGeometry x="360" y="410" width="120" height="60" as="geometry" />
        </mxCell>
        <mxCell id="WsD50GdEpe7IqlJUJexw-6" value="Server" style="text;html=1;align=center;verticalAlign=middle;resizable=0;points=[];autosize=1;strokeColor=none;fillColor=none;" parent="1" vertex="1">
          <mxGeometry x="580" y="425" width="60" height="30" as="geometry" />
        </mxCell>
        <mxCell id="WsD50GdEpe7IqlJUJexw-7" value="Chip NFC" style="rounded=0;whiteSpace=wrap;html=1;" parent="1" vertex="1">
          <mxGeometry x="30" y="605" width="100" height="30" as="geometry" />
        </mxCell>
        <mxCell id="WsD50GdEpe7IqlJUJexw-53" style="edgeStyle=orthogonalEdgeStyle;rounded=0;orthogonalLoop=1;jettySize=auto;html=1;" parent="1" source="WsD50GdEpe7IqlJUJexw-9" edge="1">
          <mxGeometry relative="1" as="geometry">
            <mxPoint x="440" y="470" as="targetPoint" />
          </mxGeometry>
        </mxCell>
        <mxCell id="WsD50GdEpe7IqlJUJexw-9" value="LED 12RGBW" style="rounded=0;whiteSpace=wrap;html=1;strokeWidth=1;" parent="1" vertex="1">
          <mxGeometry x="530" y="600" width="100" height="35" as="geometry" />
        </mxCell>
        <mxCell id="WsD50GdEpe7IqlJUJexw-52" style="edgeStyle=orthogonalEdgeStyle;rounded=0;orthogonalLoop=1;jettySize=auto;html=1;" parent="1" source="WsD50GdEpe7IqlJUJexw-12" edge="1">
          <mxGeometry relative="1" as="geometry">
            <mxPoint x="440" y="470" as="targetPoint" />
          </mxGeometry>
        </mxCell>
        <mxCell id="WsD50GdEpe7IqlJUJexw-12" value="Recepteur Infrarouge" style="whiteSpace=wrap;html=1;rounded=0;strokeWidth=1;" parent="1" vertex="1">
          <mxGeometry x="530" y="555" width="100" height="30" as="geometry" />
        </mxCell>
        <mxCell id="WsD50GdEpe7IqlJUJexw-16" value="3V3" style="edgeStyle=orthogonalEdgeStyle;rounded=0;orthogonalLoop=1;jettySize=auto;html=1;" parent="1" source="WsD50GdEpe7IqlJUJexw-14" target="WsD50GdEpe7IqlJUJexw-1" edge="1">
          <mxGeometry relative="1" as="geometry" />
        </mxCell>
        <mxCell id="WsD50GdEpe7IqlJUJexw-34" value="5V" style="edgeStyle=orthogonalEdgeStyle;rounded=0;orthogonalLoop=1;jettySize=auto;html=1;" parent="1" source="WsD50GdEpe7IqlJUJexw-14" target="WsD50GdEpe7IqlJUJexw-28" edge="1">
          <mxGeometry relative="1" as="geometry" />
        </mxCell>
        <mxCell id="WsD50GdEpe7IqlJUJexw-61" style="edgeStyle=orthogonalEdgeStyle;rounded=0;orthogonalLoop=1;jettySize=auto;html=1;exitX=0.75;exitY=1;exitDx=0;exitDy=0;startArrow=classic;startFill=1;" parent="1" source="WsD50GdEpe7IqlJUJexw-14" edge="1">
          <mxGeometry relative="1" as="geometry">
            <Array as="points">
              <mxPoint x="225" y="460" />
            </Array>
            <mxPoint x="225" y="505" as="targetPoint" />
          </mxGeometry>
        </mxCell>
        <mxCell id="WsD50GdEpe7IqlJUJexw-62" value="5V" style="edgeLabel;html=1;align=center;verticalAlign=middle;resizable=0;points=[];" parent="WsD50GdEpe7IqlJUJexw-61" vertex="1" connectable="0">
          <mxGeometry x="0.4447" relative="1" as="geometry">
            <mxPoint y="-11" as="offset" />
          </mxGeometry>
        </mxCell>
        <mxCell id="WsD50GdEpe7IqlJUJexw-14" value="Drive d&#39;alimentation et recharge" style="whiteSpace=wrap;html=1;rounded=0;strokeWidth=1;" parent="1" vertex="1">
          <mxGeometry x="140" y="420" width="120" height="40" as="geometry" />
        </mxCell>
        <mxCell id="EoIKlgUE7raE-BOLyVbn-10" value="" style="edgeStyle=orthogonalEdgeStyle;rounded=0;orthogonalLoop=1;jettySize=auto;html=1;" parent="1" source="WsD50GdEpe7IqlJUJexw-18" target="EoIKlgUE7raE-BOLyVbn-9" edge="1">
          <mxGeometry relative="1" as="geometry" />
        </mxCell>
        <mxCell id="WsD50GdEpe7IqlJUJexw-18" value="Enregistreur Audio" style="rounded=0;whiteSpace=wrap;html=1;" parent="1" vertex="1">
          <mxGeometry x="200" y="653.5" width="100" height="26.5" as="geometry" />
        </mxCell>
        <mxCell id="WsD50GdEpe7IqlJUJexw-56" style="edgeStyle=orthogonalEdgeStyle;rounded=0;orthogonalLoop=1;jettySize=auto;html=1;exitX=0;exitY=0.5;exitDx=0;exitDy=0;" parent="1" source="WsD50GdEpe7IqlJUJexw-20" edge="1">
          <mxGeometry relative="1" as="geometry">
            <mxPoint x="440" y="470.0000000000001" as="targetPoint" />
          </mxGeometry>
        </mxCell>
        <mxCell id="WsD50GdEpe7IqlJUJexw-20" value="Buzzer" style="rounded=0;whiteSpace=wrap;html=1;" parent="1" vertex="1">
          <mxGeometry x="530" y="510" width="100" height="30" as="geometry" />
        </mxCell>
        <mxCell id="EoIKlgUE7raE-BOLyVbn-15" value="" style="edgeStyle=orthogonalEdgeStyle;rounded=0;orthogonalLoop=1;jettySize=auto;html=1;dashed=1;" parent="1" source="WsD50GdEpe7IqlJUJexw-24" target="EoIKlgUE7raE-BOLyVbn-14" edge="1">
          <mxGeometry relative="1" as="geometry" />
        </mxCell>
        <mxCell id="WsD50GdEpe7IqlJUJexw-24" value="Drive Speaker Audio" style="rounded=0;whiteSpace=wrap;html=1;" parent="1" vertex="1">
          <mxGeometry x="200" y="560" width="100" height="30" as="geometry" />
        </mxCell>
        <mxCell id="WsD50GdEpe7IqlJUJexw-32" value="" style="edgeStyle=orthogonalEdgeStyle;rounded=0;orthogonalLoop=1;jettySize=auto;html=1;entryX=0.491;entryY=0.989;entryDx=0;entryDy=0;entryPerimeter=0;" parent="1" source="WsD50GdEpe7IqlJUJexw-28" target="WsD50GdEpe7IqlJUJexw-33" edge="1">
          <mxGeometry relative="1" as="geometry">
            <mxPoint x="200" y="250" as="targetPoint" />
          </mxGeometry>
        </mxCell>
        <mxCell id="WsD50GdEpe7IqlJUJexw-28" value="Drive moteur" style="rounded=1;whiteSpace=wrap;html=1;strokeWidth=1;" parent="1" vertex="1">
          <mxGeometry x="140" y="330" width="120" height="60" as="geometry" />
        </mxCell>
        <mxCell id="WsD50GdEpe7IqlJUJexw-33" value="Moteur DC" style="text;html=1;align=center;verticalAlign=middle;resizable=0;points=[];autosize=1;strokeColor=none;fillColor=none;" parent="1" vertex="1">
          <mxGeometry x="160" y="260" width="80" height="30" as="geometry" />
        </mxCell>
        <mxCell id="WsD50GdEpe7IqlJUJexw-36" value="" style="edgeStyle=orthogonalEdgeStyle;rounded=0;orthogonalLoop=1;jettySize=auto;html=1;startArrow=classic;startFill=1;" parent="1" source="WsD50GdEpe7IqlJUJexw-35" target="WsD50GdEpe7IqlJUJexw-14" edge="1">
          <mxGeometry relative="1" as="geometry" />
        </mxCell>
        <mxCell id="WsD50GdEpe7IqlJUJexw-35" value="Batterie&amp;nbsp;" style="text;html=1;align=center;verticalAlign=middle;resizable=0;points=[];autosize=1;strokeColor=none;fillColor=none;" parent="1" vertex="1">
          <mxGeometry x="20" y="425" width="70" height="30" as="geometry" />
        </mxCell>
        <mxCell id="WsD50GdEpe7IqlJUJexw-54" style="edgeStyle=orthogonalEdgeStyle;rounded=0;orthogonalLoop=1;jettySize=auto;html=1;" parent="1" source="WsD50GdEpe7IqlJUJexw-49" edge="1">
          <mxGeometry relative="1" as="geometry">
            <mxPoint x="440" y="470" as="targetPoint" />
          </mxGeometry>
        </mxCell>
        <mxCell id="WsD50GdEpe7IqlJUJexw-55" value="IO" style="edgeLabel;html=1;align=center;verticalAlign=middle;resizable=0;points=[];" parent="WsD50GdEpe7IqlJUJexw-54" vertex="1" connectable="0">
          <mxGeometry x="0.8171" relative="1" as="geometry">
            <mxPoint as="offset" />
          </mxGeometry>
        </mxCell>
        <mxCell id="WsD50GdEpe7IqlJUJexw-49" value="Transmetteur Infrarouge" style="rounded=0;whiteSpace=wrap;html=1;" parent="1" vertex="1">
          <mxGeometry x="530" y="650" width="100" height="30" as="geometry" />
        </mxCell>
        <mxCell id="WsD50GdEpe7IqlJUJexw-58" style="edgeStyle=orthogonalEdgeStyle;rounded=0;orthogonalLoop=1;jettySize=auto;html=1;entryX=0.75;entryY=0;entryDx=0;entryDy=0;" parent="1" source="WsD50GdEpe7IqlJUJexw-57" target="WsD50GdEpe7IqlJUJexw-1" edge="1">
          <mxGeometry relative="1" as="geometry" />
        </mxCell>
        <mxCell id="WsD50GdEpe7IqlJUJexw-57" value="Reset module" style="whiteSpace=wrap;html=1;" parent="1" vertex="1">
          <mxGeometry x="535" y="340" width="95" height="40" as="geometry" />
        </mxCell>
        <mxCell id="WsD50GdEpe7IqlJUJexw-60" style="edgeStyle=orthogonalEdgeStyle;rounded=0;orthogonalLoop=1;jettySize=auto;html=1;entryX=0.25;entryY=1;entryDx=0;entryDy=0;" parent="1" source="WsD50GdEpe7IqlJUJexw-59" target="WsD50GdEpe7IqlJUJexw-1" edge="1">
          <mxGeometry relative="1" as="geometry">
            <mxPoint x="380" y="525" as="targetPoint" />
          </mxGeometry>
        </mxCell>
        <mxCell id="WsD50GdEpe7IqlJUJexw-59" value="Port micro USB" style="rounded=0;whiteSpace=wrap;html=1;" parent="1" vertex="1">
          <mxGeometry x="200" y="505" width="100" height="40" as="geometry" />
        </mxCell>
        <mxCell id="EoIKlgUE7raE-BOLyVbn-1" value="" style="edgeStyle=orthogonalEdgeStyle;rounded=0;orthogonalLoop=1;jettySize=auto;html=1;entryX=1;entryY=0.5;entryDx=0;entryDy=0;exitX=0.417;exitY=1;exitDx=0;exitDy=0;exitPerimeter=0;" parent="1" source="WsD50GdEpe7IqlJUJexw-1" edge="1">
          <mxGeometry x="-0.7828" relative="1" as="geometry">
            <mxPoint x="130" y="716" as="targetPoint" />
            <Array as="points">
              <mxPoint x="410" y="716" />
            </Array>
            <mxPoint as="offset" />
            <mxPoint x="410" y="519" as="sourcePoint" />
          </mxGeometry>
        </mxCell>
        <mxCell id="EoIKlgUE7raE-BOLyVbn-3" value="Magnetometre" style="rounded=0;whiteSpace=wrap;html=1;" parent="1" vertex="1">
          <mxGeometry x="30" y="700" width="100" height="26.5" as="geometry" />
        </mxCell>
        <mxCell id="EoIKlgUE7raE-BOLyVbn-4" value="" style="edgeStyle=orthogonalEdgeStyle;rounded=0;orthogonalLoop=1;jettySize=auto;html=1;entryX=1;entryY=0.5;entryDx=0;entryDy=0;" parent="1" edge="1">
          <mxGeometry x="-0.7828" relative="1" as="geometry">
            <mxPoint x="130" y="766" as="targetPoint" />
            <Array as="points">
              <mxPoint x="410" y="766" />
            </Array>
            <mxPoint as="offset" />
            <mxPoint x="410" y="470" as="sourcePoint" />
          </mxGeometry>
        </mxCell>
        <mxCell id="EoIKlgUE7raE-BOLyVbn-5" value="SPI/I2C" style="edgeLabel;html=1;align=center;verticalAlign=middle;resizable=0;points=[];" parent="EoIKlgUE7raE-BOLyVbn-4" vertex="1" connectable="0">
          <mxGeometry x="-0.8588" y="1" relative="1" as="geometry">
            <mxPoint as="offset" />
          </mxGeometry>
        </mxCell>
        <mxCell id="EoIKlgUE7raE-BOLyVbn-6" value="3D sensor" style="rounded=0;whiteSpace=wrap;html=1;" parent="1" vertex="1">
          <mxGeometry x="30" y="750" width="100" height="26.5" as="geometry" />
        </mxCell>
        <mxCell id="EoIKlgUE7raE-BOLyVbn-9" value="Microphone" style="rounded=0;whiteSpace=wrap;html=1;" parent="1" vertex="1">
          <mxGeometry x="30" y="653.5" width="100" height="26.5" as="geometry" />
        </mxCell>
        <mxCell id="EoIKlgUE7raE-BOLyVbn-14" value="Speaker Audio" style="rounded=0;whiteSpace=wrap;html=1;" parent="1" vertex="1">
          <mxGeometry x="30" y="560" width="100" height="30" as="geometry" />
        </mxCell>
      </root>
    </mxGraphModel>
  </diagram>
</mxfile>
